<svg width="61" height="61" viewBox="0 0 61 61" fill="none" xmlns="http://www.w3.org/2000/svg">
<path d="M36.4795 25.8573L36.1641 30.0547H32.0719V44.1143H26.6859V30.0547H23.959V25.8573H26.6859V22.7099V21.8009C26.6859 21.8009 26.4932 17.1545 32.0719 16.9034C34.7827 16.7822 37.0409 17.3933 37.0409 17.3933L36.4678 21.5198C36.4678 21.5198 32.0719 20.1574 32.0719 22.8128V25.8566H36.4795V25.8573Z" fill="#FBF8EF"/>
<path d="M30.4993 61C13.6828 61 0 47.3172 0 30.4993C0 13.6814 13.6828 0 30.4993 0C47.3172 0 61 13.6814 61 30.4993C61 47.3172 47.3172 61 30.4993 61ZM30.4993 4.19005C15.9921 4.19005 4.19005 15.9921 4.19005 30.4993C4.19005 45.0064 15.9921 56.8092 30.4993 56.8092C45.0079 56.8092 56.8092 45.0064 56.8092 30.4993C56.8092 15.9921 45.0079 4.19005 30.4993 4.19005Z" fill="#FBF8EF"/>
</svg>
