<svg width="47" height="47" viewBox="0 0 47 47" fill="none" xmlns="http://www.w3.org/2000/svg">
<path d="M28.1069 19.9229L27.8639 23.1569H24.7109V33.9897H20.561V23.1569H18.46V19.9229H20.561V17.4978V16.7974C20.561 16.7974 20.4125 13.2174 24.7109 13.0239C26.7996 12.9305 28.5395 13.4014 28.5395 13.4014L28.0979 16.5808C28.0979 16.5808 24.7109 15.5311 24.7109 17.5771V19.9223H28.1069V19.9229Z" fill="#FBF8EF"/>
<path d="M23.4994 47C10.5425 47 0 36.4575 0 23.4994C0 10.5414 10.5425 0 23.4994 0C36.4575 0 47 10.5414 47 23.4994C47 36.4575 36.4575 47 23.4994 47ZM23.4994 3.2284C12.3218 3.2284 3.2284 12.3218 3.2284 23.4994C3.2284 34.6771 12.3218 43.771 23.4994 43.771C34.6782 43.771 43.771 34.6771 43.771 23.4994C43.771 12.3218 34.6782 3.2284 23.4994 3.2284Z" fill="#FBF8EF"/>
</svg>
