<svg width="61" height="61" viewBox="0 0 61 61" fill="none" xmlns="http://www.w3.org/2000/svg">
<path d="M43.7462 21.3409C43.3899 20.4231 42.9103 19.6427 42.1349 18.8651C41.3566 18.089 40.5776 17.6093 39.6577 17.2523C38.7677 16.9084 37.7514 16.6711 36.2641 16.604C34.774 16.5346 34.2965 16.52 30.5 16.52C26.7035 16.52 26.2253 16.5353 24.7351 16.604C23.2479 16.6711 22.2323 16.9084 21.3431 17.2523C20.4217 17.6093 19.6434 18.089 18.8644 18.8651C18.0883 19.6419 17.6108 20.4231 17.2545 21.3409C16.9092 22.2309 16.6711 23.2479 16.604 24.7351C16.5353 26.226 16.5186 26.702 16.5186 30.4993C16.5186 34.2965 16.5353 34.7726 16.604 36.2634C16.6711 37.7528 16.9092 38.7684 17.2545 39.6569C17.6108 40.5769 18.089 41.3573 18.8644 42.1334C19.6427 42.911 20.4217 43.3899 21.3431 43.7477C22.2331 44.0916 23.2479 44.3289 24.7351 44.3975C26.2253 44.4639 26.7042 44.4814 30.5 44.4814C34.2958 44.4814 34.774 44.4639 36.2641 44.3975C37.7514 44.3289 38.7684 44.0916 39.6577 43.7477C40.5776 43.3899 41.3559 42.911 42.1349 42.1334C42.911 41.3573 43.3899 40.5769 43.7462 39.6569C44.0945 38.7677 44.3267 37.7528 44.3953 36.2634C44.4654 34.7726 44.4807 34.2965 44.4807 30.4993C44.4807 26.702 44.4654 26.226 44.3953 24.7351C44.3267 23.2479 44.0938 22.2309 43.7462 21.3409ZM41.8808 36.1495C41.818 37.5112 41.5902 38.2522 41.3975 38.7458C41.1449 39.3985 40.8426 39.8628 40.352 40.3513C39.8614 40.8412 39.3977 41.1442 38.745 41.3997C38.25 41.591 37.5126 41.8166 36.1495 41.8794C34.6747 41.948 34.233 41.9611 30.5 41.9611C26.7655 41.9611 26.3231 41.9473 24.8505 41.8794C23.4859 41.8166 22.7485 41.5902 22.2535 41.3997C21.6015 41.1442 21.1372 40.8412 20.648 40.3513C20.1588 39.8628 19.8551 39.3977 19.601 38.7458C19.4112 38.2522 19.1834 37.5119 19.1192 36.1495C19.052 34.674 19.0396 34.233 19.0396 30.4993C19.0396 26.767 19.0527 26.3245 19.1192 24.8519C19.1834 23.4888 19.4112 22.7478 19.601 22.255C19.8551 21.603 20.1574 21.1357 20.648 20.648C21.1372 20.1588 21.6023 19.8544 22.2535 19.6018C22.7485 19.409 23.4859 19.182 24.8505 19.1199C26.3253 19.0535 26.7655 19.0389 30.5 19.0389C34.233 19.0389 34.6754 19.0542 36.1495 19.1199C37.5126 19.182 38.25 19.409 38.745 19.6018C39.3985 19.8544 39.8614 20.1588 40.352 20.648C40.8426 21.1357 41.1449 21.6037 41.3975 22.255C41.5902 22.7478 41.818 23.4881 41.8808 24.8519C41.9465 26.3253 41.9604 26.767 41.9604 30.4993C41.9604 34.233 41.9465 34.674 41.8808 36.1495ZM30.5 23.3224C26.5326 23.3224 23.3202 26.5334 23.3202 30.4993C23.3202 34.4652 26.5326 37.6791 30.5 37.6791C34.4659 37.6791 37.6784 34.4652 37.6784 30.4993C37.6784 26.5334 34.4659 23.3224 30.5 23.3224ZM30.5 35.161C27.9249 35.161 25.8398 33.0736 25.8398 30.4993C25.8398 27.9264 27.9242 25.839 30.5 25.839C33.0736 25.839 35.1588 27.9257 35.1588 30.4993C35.1588 33.0729 33.0736 35.161 30.5 35.161ZM39.6409 23.0384C39.6409 23.9634 38.8896 24.7161 37.9624 24.7161C37.0351 24.7161 36.2853 23.9634 36.2853 23.0384C36.2853 22.1104 37.0351 21.3584 37.9624 21.3584C38.8896 21.3584 39.6409 22.1111 39.6409 23.0384ZM30.4985 0C13.6806 0 0 13.6814 0 30.4993C0 47.3172 13.6806 61 30.4985 61C47.3179 61 61 47.3172 61 30.4993C61 13.6814 47.3179 0 30.4985 0ZM30.4985 56.8092C15.9922 56.8092 4.19078 45.0064 4.19078 30.4993C4.19078 15.9921 15.9922 4.19005 30.4985 4.19005C45.0064 4.19005 56.8092 15.9921 56.8092 30.4993C56.8092 45.0064 45.0064 56.8092 30.4985 56.8092Z" fill="#FBF8EF"/>
</svg>
