<svg width="47" height="47" viewBox="0 0 47 47" fill="none" xmlns="http://www.w3.org/2000/svg">
<path d="M33.7061 16.443C33.4316 15.7359 33.062 15.1345 32.4646 14.5354C31.8649 13.9374 31.2647 13.5678 30.5559 13.2928C29.8702 13.0278 29.0871 12.845 27.9412 12.7932C26.7931 12.7398 26.4252 12.7285 23.5 12.7285C20.5748 12.7285 20.2063 12.7403 19.0582 12.7932C17.9123 12.845 17.1298 13.0278 16.4447 13.2928C15.7347 13.5678 15.1351 13.9374 14.5348 14.5354C13.9369 15.1339 13.569 15.7359 13.2944 16.443C13.0284 17.1287 12.845 17.9123 12.7932 19.0582C12.7403 20.2069 12.7274 20.5737 12.7274 23.4994C12.7274 26.4252 12.7403 26.792 12.7932 27.9407C12.845 29.0882 13.0284 29.8707 13.2944 30.5553C13.569 31.2641 13.9374 31.8655 14.5348 32.4635C15.1345 33.0626 15.7347 33.4316 16.4447 33.7072C17.1304 33.9722 17.9123 34.155 19.0582 34.2079C20.2063 34.2591 20.5754 34.2726 23.5 34.2726C26.4246 34.2726 26.7931 34.2591 27.9412 34.2079C29.0871 34.155 29.8707 33.9722 30.5559 33.7072C31.2647 33.4316 31.8644 33.0626 32.4646 32.4635C33.0626 31.8655 33.4316 31.2641 33.7061 30.5553C33.9744 29.8702 34.1533 29.0882 34.2062 27.9407C34.2602 26.792 34.272 26.4252 34.272 23.4994C34.272 20.5737 34.2602 20.2069 34.2062 19.0582C34.1533 17.9123 33.9739 17.1287 33.7061 16.443ZM32.2688 27.8529C32.2205 28.902 32.0449 29.473 31.8964 29.8533C31.7018 30.3562 31.4689 30.714 31.0909 31.0903C30.7129 31.4678 30.3556 31.7012 29.8527 31.8981C29.4713 32.0455 28.9032 32.2193 27.8529 32.2677C26.7166 32.3206 26.3763 32.3307 23.5 32.3307C20.6226 32.3307 20.2817 32.32 19.1471 32.2677C18.0957 32.2193 17.5275 32.0449 17.1461 31.8981C16.6438 31.7012 16.286 31.4678 15.9091 31.0903C15.5322 30.714 15.2982 30.3556 15.1024 29.8533C14.9562 29.473 14.7807 28.9026 14.7312 27.8529C14.6794 26.716 14.6699 26.3763 14.6699 23.4994C14.6699 20.6237 14.68 20.2828 14.7312 19.1482C14.7807 18.098 14.9562 17.527 15.1024 17.1473C15.2982 16.6449 15.5311 16.2849 15.9091 15.9091C16.286 15.5322 16.6444 15.2976 17.1461 15.103C17.5275 14.9545 18.0957 14.7795 19.1471 14.7317C20.2834 14.6805 20.6226 14.6693 23.5 14.6693C26.3763 14.6693 26.7171 14.6811 27.8529 14.7317C28.9032 14.7795 29.4713 14.9545 29.8527 15.103C30.3562 15.2976 30.7129 15.5322 31.0909 15.9091C31.4689 16.2849 31.7018 16.6455 31.8964 17.1473C32.0449 17.527 32.2205 18.0974 32.2688 19.1482C32.3195 20.2834 32.3301 20.6237 32.3301 23.4994C32.3301 26.3763 32.3195 26.716 32.2688 27.8529ZM23.5 17.9697C20.4432 17.9697 17.968 20.4437 17.968 23.4994C17.968 26.5551 20.4432 29.0314 23.5 29.0314C26.5557 29.0314 29.0309 26.5551 29.0309 23.4994C29.0309 20.4437 26.5557 17.9697 23.5 17.9697ZM23.5 27.0912C21.5159 27.0912 19.9093 25.4829 19.9093 23.4994C19.9093 21.5171 21.5154 19.9088 23.5 19.9088C25.4829 19.9088 27.0895 21.5165 27.0895 23.4994C27.0895 25.4824 25.4829 27.0912 23.5 27.0912ZM30.543 17.7509C30.543 18.4636 29.9641 19.0436 29.2497 19.0436C28.5353 19.0436 27.9575 18.4636 27.9575 17.7509C27.9575 17.0359 28.5353 16.4565 29.2497 16.4565C29.9641 16.4565 30.543 17.0364 30.543 17.7509ZM23.4989 0C10.5408 0 0 10.5414 0 23.4994C0 36.4575 10.5408 47 23.4989 47C36.458 47 47 36.4575 47 23.4994C47 10.5414 36.458 0 23.4989 0ZM23.4989 43.771C12.3218 43.771 3.22896 34.6771 3.22896 23.4994C3.22896 12.3218 12.3218 3.2284 23.4989 3.2284C34.6771 3.2284 43.771 12.3218 43.771 23.4994C43.771 34.6771 34.6771 43.771 23.4989 43.771Z" fill="#FBF8EF"/>
</svg>
