<svg width="159" height="54" viewBox="0 0 159 54" fill="none" xmlns="http://www.w3.org/2000/svg">
<path opacity="0.3" d="M84.8297 9.91282H98.0323C98.0323 9.91282 98.266 9.74364 98.0323 8.52282C98.0323 8.52282 94.0608 2.21337 101.363 1C101.363 1 109.015 1.57671 104.636 8.46784C104.636 8.46784 104.228 9.51132 104.986 9.91282H118.716V22.2476C118.716 22.2476 118.831 23.1145 120.002 23.1687C120.002 23.1687 126.545 18.543 127.771 26.2442C127.771 26.2442 127.244 33.8209 120.409 29.8304C120.409 29.8304 119.124 28.9603 118.774 30.8714L118.831 43.6644H105.57C105.57 43.6644 104.401 43.6102 104.87 44.9384C104.87 44.9384 108.901 51.133 101.478 52.5808C101.478 52.5808 94.1757 52.2346 97.9145 44.765C97.9145 44.765 98.4432 44.0716 97.4492 43.5502L84.8297 43.7265V30.871C84.8297 30.871 84.8297 29.0792 83.311 29.7719C83.311 29.7719 76.884 33.7652 75.8313 26.1828C75.8313 26.1828 76.1832 19.2924 83.311 22.9981C83.311 22.9981 84.5366 23.4589 84.8297 22.1891V9.91282V9.91282Z" stroke="#FBF8EF" stroke-width="0.5" stroke-miterlimit="10"/>
<path d="M87.498 11.6766H100.286C100.286 11.6766 100.512 11.5096 100.286 10.3352C100.286 10.3352 96.4349 4.22015 103.51 3.04367C103.51 3.04367 110.924 3.6062 106.679 10.2753C106.679 10.2753 106.282 11.2847 107.018 11.6766H120.318V23.622C120.318 23.622 120.43 24.4622 121.562 24.5172C121.562 24.5172 127.9 20.0308 129.088 27.4919C129.088 27.4919 128.579 34.836 121.959 30.9682C121.959 30.9682 120.713 30.1248 120.371 31.9755L120.43 44.366H107.584C107.584 44.366 106.454 44.3103 106.906 45.602C106.906 45.602 110.811 51.6026 103.624 53C103.624 53 96.5484 52.6648 100.171 45.4307C100.171 45.4307 100.68 44.7579 99.7187 44.2557L87.4977 44.4241V31.9755C87.4977 31.9755 87.4977 30.2418 86.0247 30.9121C86.0247 30.9121 79.8014 34.7793 78.7827 27.4352C78.7827 27.4352 79.1228 20.7626 86.0247 24.3495C86.0247 24.3495 87.2156 24.7988 87.4977 23.5649V11.6766H87.498Z" stroke="#04D0D9" stroke-miterlimit="10"/>
<path d="M137.348 38.3544V29.9963H134.905C134.558 29.9963 134.384 29.8243 134.384 29.4799V18.6688C134.384 18.5188 134.433 18.3897 134.531 18.2819C134.628 18.1744 134.753 18.1205 134.905 18.1205C135.057 18.1205 135.187 18.1744 135.296 18.2819C135.405 18.3897 135.459 18.5188 135.459 18.6688V28.9316H137.869C138.021 28.9316 138.151 28.9855 138.26 29.093C138.368 29.2011 138.423 29.3299 138.423 29.4803V38.3548C138.423 38.5059 138.368 38.629 138.26 38.7261C138.151 38.8226 138.021 38.8712 137.869 38.8712C137.522 38.8709 137.348 38.6992 137.348 38.3544ZM134.417 32.3844C134.417 32.0404 134.59 31.868 134.938 31.868C135.307 31.868 135.492 32.0404 135.492 32.3844V40.1942C135.492 40.5389 135.307 40.7106 134.938 40.7106C134.59 40.7106 134.417 40.5389 134.417 40.1942V32.3844ZM137.674 40.7106C137.522 40.6677 137.413 40.5708 137.348 40.4201C137.283 40.2701 137.272 40.119 137.316 39.9686V39.9363C137.424 39.6778 137.609 39.549 137.869 39.549C137.913 39.549 137.945 39.5547 137.967 39.565C137.988 39.576 138.021 39.5813 138.064 39.5813C138.238 39.6245 138.357 39.7217 138.423 39.8718C138.488 40.0225 138.488 40.1732 138.423 40.3233V40.3556C138.357 40.6138 138.173 40.7429 137.869 40.7429L137.674 40.7106ZM138.423 26.6077C138.423 26.7584 138.368 26.8819 138.26 26.9787C138.151 27.0755 138.021 27.1241 137.869 27.1241C137.521 27.1241 137.348 26.9521 137.348 26.6077V21.0569C137.348 20.9065 137.397 20.7778 137.494 20.6696C137.592 20.5621 137.717 20.5082 137.869 20.5082C138.021 20.5082 138.151 20.5621 138.26 20.6696C138.368 20.7778 138.423 20.9065 138.423 21.0569V26.6077Z" fill="#FBF8EF"/>
<path d="M149.92 18.7327V28.9306H152.362C152.514 28.9306 152.639 28.9845 152.737 29.092C152.834 29.2001 152.883 29.3289 152.883 29.4793V37.7086C152.883 38.0746 152.709 38.2573 152.362 38.2573C152.21 38.2573 152.08 38.2087 151.971 38.1122C151.862 38.0154 151.808 37.8813 151.808 37.7086V29.9957H149.398C149.246 29.9957 149.116 29.9471 149.008 29.8506C148.898 29.7538 148.845 29.63 148.845 29.4793V19.2492H142.917C142.548 19.2492 142.363 19.0771 142.363 18.7327C142.363 18.3671 142.548 18.184 142.917 18.184H149.398C149.746 18.184 149.92 18.3671 149.92 18.7327ZM146.891 21.024C147.043 21.024 147.168 21.0779 147.265 21.1854C147.363 21.2932 147.412 21.4223 147.412 21.5727C147.412 21.9171 147.238 22.0891 146.891 22.0891H142.917C142.548 22.0891 142.364 21.9171 142.364 21.5727C142.364 21.4223 142.413 21.2932 142.51 21.1854C142.608 21.0779 142.743 21.024 142.917 21.024H146.891ZM149.952 40.1935C149.952 40.5383 149.778 40.7099 149.431 40.7099C149.279 40.7099 149.149 40.6613 149.04 40.5649C148.931 40.468 148.877 40.3446 148.877 40.1935V32.416C148.877 32.244 148.931 32.1096 149.04 32.0124C149.149 31.9159 149.279 31.8673 149.431 31.8673C149.778 31.8673 149.952 32.0504 149.952 32.416V40.1935ZM152.363 18.184H156.596C156.944 18.184 157.118 18.3671 157.118 18.7327C157.118 19.0771 156.944 19.2492 156.596 19.2492H152.363C152.21 19.2492 152.08 19.2006 151.972 19.1037C151.862 19.0073 151.809 18.8835 151.809 18.7327C151.809 18.5607 151.862 18.4259 151.972 18.3291C152.08 18.2323 152.21 18.184 152.363 18.184ZM151.809 26.607V21.5727C151.809 21.4223 151.862 21.2932 151.972 21.1854C152.08 21.0779 152.21 21.024 152.363 21.024H158.388C158.561 21.024 158.697 21.0779 158.795 21.1854C158.893 21.2932 158.941 21.4223 158.941 21.5727C158.941 21.9171 158.757 22.0891 158.388 22.0891H152.883V26.607C152.883 26.9514 152.709 27.1235 152.363 27.1235C152.21 27.1235 152.08 27.0749 151.972 26.978C151.862 26.8812 151.809 26.7578 151.809 26.607ZM158.583 18.1518C158.757 18.1954 158.876 18.2922 158.941 18.4423C159.007 18.593 159.017 18.7441 158.974 18.8941H158.941C158.876 19.174 158.692 19.3137 158.388 19.3137C158.148 19.2279 157.986 19.1147 157.899 18.975C157.812 18.8349 157.79 18.6898 157.834 18.5391L157.867 18.5068C157.932 18.2486 158.116 18.1195 158.42 18.1195C158.507 18.1195 158.561 18.1305 158.583 18.1518Z" fill="#FBF8EF"/>
<path d="M95.8123 15.4356V20.7044H97.0741C97.1525 20.7044 97.2169 20.7325 97.2678 20.7878C97.3182 20.8435 97.3433 20.9102 97.3433 20.9875V25.2394C97.3433 25.4285 97.2534 25.5228 97.0741 25.5228C96.9954 25.5228 96.9284 25.498 96.8722 25.448C96.816 25.3976 96.7885 25.3284 96.7885 25.2394V21.2546H95.5432C95.4648 21.2546 95.3975 21.2294 95.3416 21.1794C95.2854 21.1294 95.2575 21.0655 95.2575 20.9875V15.702H92.1949C92.0041 15.702 91.9086 15.6133 91.9086 15.4353C91.9086 15.2462 92.0041 15.1519 92.1949 15.1519H95.5432C95.7221 15.1522 95.8123 15.2466 95.8123 15.4356ZM94.2474 16.6196C94.3258 16.6196 94.3902 16.6476 94.4407 16.7029C94.4915 16.7586 94.5166 16.8253 94.5166 16.903C94.5166 17.081 94.4267 17.1697 94.2474 17.1697H92.1946C92.0038 17.1697 91.9082 17.081 91.9082 16.903C91.9082 16.8253 91.9333 16.7586 91.9841 16.7029C92.0346 16.6476 92.1044 16.6196 92.1946 16.6196H94.2474ZM95.8292 26.5241C95.8292 26.7021 95.7393 26.7908 95.56 26.7908C95.4812 26.7908 95.4139 26.766 95.3581 26.7156C95.3019 26.6656 95.274 26.6021 95.274 26.5241V22.5055C95.274 22.4168 95.3019 22.3473 95.3581 22.297C95.4139 22.247 95.4816 22.2221 95.56 22.2221C95.7393 22.2221 95.8292 22.3168 95.8292 22.5055V26.5241ZM97.0745 15.1522H99.2619C99.4412 15.1522 99.5314 15.2469 99.5314 15.4356C99.5314 15.6133 99.4412 15.7024 99.2619 15.7024H97.0745C96.9957 15.7024 96.9288 15.6775 96.8726 15.6275C96.8164 15.5775 96.7888 15.5137 96.7888 15.4356C96.7888 15.347 96.8164 15.2771 96.8726 15.2271C96.9284 15.1771 96.9957 15.1522 97.0745 15.1522ZM96.7885 19.5042V16.903C96.7885 16.8253 96.816 16.7586 96.8722 16.7029C96.9284 16.6476 96.9957 16.6196 97.0741 16.6196H100.187C100.277 16.6196 100.347 16.6476 100.398 16.7029C100.448 16.7586 100.473 16.8253 100.473 16.903C100.473 17.081 100.378 17.1697 100.187 17.1697H97.3433V19.5042C97.3433 19.6822 97.2534 19.7709 97.0741 19.7709C96.9954 19.7709 96.9284 19.7461 96.8722 19.6961C96.816 19.6457 96.7885 19.5819 96.7885 19.5042ZM100.288 15.1356C100.378 15.1579 100.44 15.2079 100.474 15.2856C100.508 15.3636 100.513 15.4413 100.49 15.519H100.474C100.44 15.6637 100.345 15.7357 100.188 15.7357C100.064 15.6914 99.9799 15.6328 99.9352 15.5605C99.8901 15.4881 99.879 15.4133 99.9015 15.3353L99.9184 15.3186C99.952 15.1852 100.047 15.1185 100.204 15.1185C100.249 15.1189 100.277 15.1246 100.288 15.1356Z" fill="#FBF8EF"/>
<path d="M96.1487 41.0255C95.5767 40.9922 95.0409 40.8702 94.5419 40.6588C94.0426 40.4478 93.6134 40.153 93.2544 39.7753C92.9064 39.4086 92.6459 38.9975 92.4719 38.5414C92.2979 38.0859 92.222 37.6078 92.2446 37.1074C92.2671 36.9297 92.3681 36.8406 92.5478 36.8406C92.6262 36.852 92.6906 36.8825 92.7411 36.9325C92.7919 36.9825 92.8109 37.052 92.8001 37.1411C92.7661 38.0079 93.0525 38.7584 93.6581 39.3922C93.9721 39.7146 94.3422 39.9704 94.7688 40.1591C95.1948 40.3481 95.6605 40.4538 96.1656 40.4761C96.255 40.4761 96.3252 40.5038 96.3757 40.5591C96.4265 40.6148 96.4455 40.6819 96.4347 40.7592C96.4347 40.8372 96.4065 40.9007 96.3506 40.9511C96.2944 41.0011 96.2329 41.0259 96.1656 41.0259H96.1487V41.0255ZM93.2039 34.6895C92.5868 34.1341 92.3062 33.4722 92.3624 32.7054C92.3624 32.6831 92.3652 32.6274 92.3706 32.5384C92.3763 32.4497 92.3985 32.3411 92.4379 32.2135C92.4769 32.0858 92.5356 31.9496 92.6144 31.8049C92.6928 31.6605 92.8048 31.5215 92.9508 31.3881C93.3099 31.0324 93.7333 30.8157 94.2212 30.7376C94.7094 30.6599 95.1944 30.6209 95.677 30.6209C95.8337 30.6323 96.0807 30.6628 96.4172 30.7128C96.7533 30.7628 97.0901 30.8827 97.4266 31.0714C98.2681 31.5271 98.6719 32.2386 98.6383 33.2059C98.6157 33.3726 98.5205 33.4559 98.3523 33.4559C98.2621 33.4559 98.1923 33.4282 98.1418 33.3726C98.0913 33.3172 98.0716 33.2502 98.0831 33.1729C98.1053 32.7618 98.0212 32.4224 97.8304 32.1556C97.7298 31.978 97.5948 31.8304 97.4266 31.7137C97.2584 31.597 97.0733 31.4998 96.8711 31.4222C96.6696 31.3445 96.4644 31.286 96.2568 31.2469C96.0492 31.2083 95.8502 31.1831 95.6594 31.1721C95.2557 31.1721 94.8437 31.1998 94.4227 31.2551C94.0021 31.3108 93.6402 31.4835 93.3374 31.7722C93.1241 31.9719 93.0009 32.1723 92.9673 32.3724C92.9337 32.5724 92.9168 32.6838 92.9168 32.7058C92.9054 33.0282 92.9505 33.3144 93.0514 33.5644C93.1524 33.8145 93.3095 34.0397 93.5225 34.2394C93.7355 34.4394 93.9907 34.626 94.2881 34.798C94.5852 34.9704 94.9192 35.1343 95.2893 35.29L95.5417 35.4067C95.9794 35.5957 96.3803 35.7766 96.7447 35.9486C97.1095 36.121 97.4209 36.3015 97.6786 36.4902C97.97 36.6793 98.1779 36.8907 98.3011 37.124C98.4579 37.3908 98.4972 37.6685 98.4188 37.9579C98.3852 38.0913 98.2953 38.1576 98.1497 38.1576C98.0376 38.1352 97.9589 38.0937 97.9141 38.0324C97.869 37.9714 97.8579 37.9019 97.8805 37.8238C97.97 37.4908 97.7849 37.1847 97.325 36.907C96.865 36.6293 96.1978 36.2955 95.3226 35.9064L95.0702 35.8068C94.756 35.6624 94.4306 35.5039 94.0938 35.3315C93.7594 35.1591 93.462 34.9456 93.2039 34.6895ZM94.2978 37.2907C94.2416 37.4241 94.1464 37.4908 94.0118 37.4908C93.8772 37.4571 93.787 37.4018 93.7423 37.3237C93.6975 37.246 93.6918 37.1684 93.7254 37.0903V37.0737C93.7594 36.9403 93.8543 36.874 94.0118 36.874C94.0343 36.874 94.0508 36.8768 94.0623 36.8821C94.0737 36.8875 94.0902 36.8903 94.1131 36.8903C94.1915 36.9127 94.2477 36.9627 94.2813 37.0403C94.315 37.1184 94.3203 37.196 94.2981 37.2737V37.2907H94.2978ZM99.5482 38.8414C99.1551 39.2528 98.7152 39.5086 98.2273 39.6082C97.7395 39.7083 97.2258 39.7586 96.6874 39.7586C96.4183 39.7476 96.1405 39.7083 95.8545 39.6419C95.5685 39.5753 95.299 39.4809 95.0466 39.3582C94.7943 39.2362 94.567 39.0805 94.3654 38.8914C94.1636 38.7027 94.0061 38.4747 93.8944 38.2079C93.8718 38.1413 93.8743 38.0717 93.9026 37.9994C93.9305 37.9274 93.9781 37.8742 94.0454 37.8412C94.068 37.8412 94.0844 37.8384 94.0959 37.833C94.1074 37.8277 94.1238 37.8245 94.1467 37.8245C94.2702 37.8245 94.3597 37.8802 94.4159 37.9916C94.5058 38.214 94.6346 38.3977 94.8028 38.5417C94.9714 38.6864 95.1619 38.8059 95.3752 38.9003C95.5882 38.9953 95.8098 39.0645 96.0399 39.1088C96.2697 39.1535 96.4913 39.1869 96.7043 39.2089C96.9845 39.2089 97.2766 39.1922 97.5791 39.1589C97.8823 39.1252 98.1683 39.0532 98.4371 38.9421C98.7066 38.8311 98.9422 38.6783 99.144 38.4835C99.3459 38.2892 99.4862 38.031 99.565 37.7082C99.5757 37.4305 99.565 37.2077 99.5313 37.041C99.4973 36.8743 99.4136 36.7133 99.2786 36.5576C99.1104 36.3689 98.8412 36.166 98.4711 35.949C98.101 35.7319 97.5902 35.4794 96.9398 35.19C96.4573 34.9789 96.0281 34.7789 95.6523 34.5898C95.2764 34.4011 94.9593 34.2124 94.7016 34.023C94.0394 33.5339 93.7594 33.0168 93.86 32.4724C93.8826 32.3724 93.9248 32.3114 93.9867 32.2887C94.0483 32.2663 94.1181 32.2553 94.1968 32.2553C94.2752 32.2663 94.3343 32.3028 94.3737 32.3638C94.4127 32.4252 94.4266 32.4944 94.4155 32.5724C94.3819 32.7614 94.4324 32.9477 94.567 33.1307C94.7016 33.3144 94.8981 33.4921 95.1561 33.6645C95.4142 33.8368 95.7199 34.0092 96.0736 34.1812C96.4269 34.3536 96.7945 34.5232 97.1757 34.6899C97.8826 35.0123 98.4292 35.29 98.8165 35.5237C99.2035 35.7571 99.4923 35.9852 99.6831 36.2075C99.9072 36.4519 100.039 36.697 100.078 36.941C100.117 37.1854 100.126 37.4525 100.103 37.7415C100.103 37.7639 100.07 37.8891 100.002 38.1168C99.9351 38.3442 99.7837 38.5857 99.5482 38.8414ZM99.2113 30.6209C99.8732 31.3438 100.176 32.2273 100.12 33.2722C100.097 33.4502 100.002 33.5393 99.8338 33.5393C99.6319 33.5169 99.5421 33.4169 99.5646 33.2388C99.5872 32.8051 99.531 32.3943 99.396 32.0049C99.2614 31.6158 99.0599 31.2767 98.7904 30.9877C98.4987 30.6656 98.1314 30.4124 97.6883 30.229C97.2451 30.0453 96.7487 29.9371 96.1992 29.9038C96.1205 29.9038 96.0532 29.8761 95.9973 29.8204C95.9411 29.7651 95.9186 29.6984 95.93 29.6207C95.93 29.5431 95.9576 29.4792 96.0138 29.4289C96.07 29.3788 96.1373 29.354 96.2157 29.354C97.495 29.4207 98.4936 29.8431 99.2113 30.6209Z" fill="#FBF8EF"/>
<path d="M110.139 29.8328V35.1016H111.4C111.479 35.1016 111.543 35.1297 111.594 35.185C111.644 35.2407 111.669 35.3074 111.669 35.3847V39.6366C111.669 39.8257 111.58 39.92 111.4 39.92C111.322 39.92 111.255 39.8952 111.198 39.8452C111.142 39.7948 111.115 39.7256 111.115 39.6366V35.6521H109.869C109.791 35.6521 109.724 35.6269 109.668 35.5769C109.612 35.5269 109.584 35.4631 109.584 35.385V30.0996H106.521C106.33 30.0996 106.235 30.0109 106.235 29.8328C106.235 29.6441 106.33 29.5494 106.521 29.5494H109.869C110.048 29.5494 110.139 29.6438 110.139 29.8328ZM108.574 31.0168C108.652 31.0168 108.716 31.0444 108.767 31.1001C108.818 31.1558 108.843 31.2225 108.843 31.2998C108.843 31.4779 108.753 31.5665 108.574 31.5665H106.521C106.33 31.5665 106.234 31.4779 106.234 31.2998C106.234 31.2221 106.259 31.1558 106.31 31.1001C106.361 31.0444 106.431 31.0168 106.521 31.0168H108.574ZM110.155 40.9209C110.155 41.099 110.065 41.1876 109.886 41.1876C109.807 41.1876 109.74 41.1628 109.684 41.1124C109.628 41.0624 109.6 40.9989 109.6 40.9209V36.9024C109.6 36.8137 109.628 36.7442 109.684 36.6938C109.74 36.6438 109.808 36.619 109.886 36.619C110.065 36.619 110.155 36.7137 110.155 36.9024V40.9209ZM111.4 29.5494H113.588C113.767 29.5494 113.857 29.6441 113.857 29.8328C113.857 30.0109 113.767 30.0996 113.588 30.0996H111.4C111.322 30.0996 111.255 30.0747 111.198 30.0247C111.142 29.9744 111.115 29.9109 111.115 29.8328C111.115 29.7438 111.142 29.6746 111.198 29.6243C111.255 29.5743 111.322 29.5494 111.4 29.5494ZM111.114 33.901V31.2998C111.114 31.2221 111.142 31.1558 111.198 31.1001C111.254 31.0444 111.322 31.0168 111.4 31.0168H114.513C114.602 31.0168 114.673 31.0444 114.723 31.1001C114.774 31.1558 114.799 31.2225 114.799 31.2998C114.799 31.4779 114.703 31.5665 114.513 31.5665H111.669V33.901C111.669 34.0791 111.579 34.1678 111.4 34.1678C111.321 34.1678 111.254 34.1429 111.198 34.0929C111.142 34.0429 111.114 33.9791 111.114 33.901ZM114.615 29.5324C114.704 29.5548 114.766 29.6051 114.8 29.6828C114.834 29.7608 114.839 29.8385 114.817 29.9162H114.8C114.766 30.0605 114.671 30.1325 114.514 30.1325C114.39 30.0886 114.306 30.03 114.261 29.9577C114.216 29.8857 114.205 29.8105 114.228 29.7325L114.245 29.7158C114.278 29.5824 114.373 29.5157 114.531 29.5157C114.575 29.5157 114.603 29.5218 114.615 29.5324Z" fill="#FBF8EF"/>
<path d="M107.471 20.5213C107.392 20.5213 107.325 20.4937 107.27 20.438C107.213 20.3826 107.186 20.3156 107.186 20.2379V15.3692C107.186 15.2915 107.213 15.2249 107.27 15.1692C107.325 15.1138 107.393 15.0858 107.471 15.0858C107.55 15.0858 107.614 15.1138 107.665 15.1692C107.715 15.2249 107.74 15.2915 107.74 15.3692V19.9712H112.065C112.144 19.9712 112.211 19.996 112.267 20.0464C112.323 20.0964 112.351 20.1603 112.351 20.2379C112.351 20.316 112.323 20.3826 112.267 20.438C112.211 20.4937 112.143 20.5213 112.065 20.5213H107.471ZM107.471 26.8237C107.392 26.8237 107.325 26.796 107.27 26.7407C107.213 26.685 107.186 26.6183 107.186 26.5406V21.7049C107.186 21.6272 107.213 21.5609 107.27 21.5052C107.325 21.4499 107.393 21.4219 107.471 21.4219H112.065C112.144 21.4219 112.211 21.4499 112.267 21.5052C112.323 21.5609 112.351 21.6276 112.351 21.7049C112.351 21.7829 112.323 21.8468 112.267 21.8968C112.211 21.9468 112.143 21.972 112.065 21.972H107.74V26.2739H113.58C113.759 26.2739 113.849 26.363 113.849 26.5406C113.849 26.6187 113.824 26.685 113.773 26.7407C113.722 26.796 113.658 26.8237 113.58 26.8237H107.471ZM108.851 15.6856C108.772 15.6856 108.708 15.6579 108.657 15.6022C108.607 15.5465 108.582 15.4799 108.582 15.4022C108.582 15.2245 108.671 15.1355 108.851 15.1355H113.58C113.658 15.1355 113.725 15.1603 113.781 15.2103C113.837 15.2603 113.865 15.3245 113.865 15.4022C113.865 15.4802 113.837 15.5469 113.781 15.6022C113.725 15.6579 113.658 15.6856 113.58 15.6856H108.851ZM113.546 16.5861C113.624 16.5861 113.691 16.6141 113.747 16.6695C113.804 16.7248 113.832 16.7918 113.832 16.8695C113.832 16.9475 113.804 17.011 113.747 17.0614C113.691 17.1118 113.624 17.1362 113.546 17.1362H109.187V19.004C109.187 19.082 109.159 19.1484 109.103 19.2037C109.047 19.2594 108.98 19.287 108.902 19.287C108.823 19.287 108.759 19.2594 108.708 19.2037C108.657 19.1484 108.632 19.0817 108.632 19.004V16.8695C108.632 16.7918 108.657 16.7252 108.708 16.6695C108.759 16.6138 108.823 16.5861 108.902 16.5861H113.546ZM108.902 22.6054C108.98 22.6054 109.047 22.6303 109.103 22.6806C109.159 22.7306 109.187 22.8002 109.187 22.8888V24.8566H112.553C112.631 24.8566 112.698 24.8843 112.754 24.94C112.81 24.9953 112.839 25.0623 112.839 25.1396C112.839 25.2177 112.81 25.2812 112.754 25.3315C112.698 25.3815 112.631 25.4064 112.553 25.4064H108.901C108.721 25.4064 108.632 25.3177 108.632 25.1396V22.8885C108.632 22.6998 108.722 22.6054 108.902 22.6054ZM113.596 24.8399C113.675 24.8623 113.731 24.9095 113.765 24.9815C113.799 25.0538 113.804 25.129 113.782 25.2067V25.2233C113.726 25.3567 113.63 25.4234 113.495 25.4234C113.372 25.3897 113.288 25.3372 113.243 25.2648C113.198 25.1928 113.187 25.112 113.209 25.023C113.265 24.8896 113.361 24.8233 113.495 24.8233C113.54 24.8233 113.573 24.8286 113.596 24.8399Z" fill="#FBF8EF"/>
<path d="M0.521172 37.7555C0.173605 37.7555 0 37.5834 0 37.239V18.5536C0 18.2096 0.173605 18.0372 0.521172 18.0372C0.890216 18.0372 1.07492 18.2096 1.07492 18.5536V36.6903H9.73832C9.91192 36.6903 10.0476 36.7443 10.1453 36.8517C10.243 36.9599 10.2921 37.0887 10.2921 37.239C10.2921 37.5834 10.1074 37.7555 9.73832 37.7555H0.521172ZM2.93123 21.4578C2.93123 21.1137 3.10484 20.9414 3.4524 20.9414C3.60381 20.9414 3.73447 20.99 3.84328 21.0864C3.95174 21.1833 4.00615 21.3074 4.00615 21.4578V34.6569C4.00615 34.808 3.95174 34.9311 3.84328 35.0283C3.73447 35.1248 3.60417 35.1734 3.4524 35.1734C3.10484 35.1734 2.93123 35.0017 2.93123 34.6569V21.4578ZM2.9638 40.0144C2.9638 39.864 3.0175 39.7403 3.12667 39.6431C3.23513 39.5466 3.36542 39.498 3.51755 39.498H11.5295C11.8767 39.498 12.0507 39.6704 12.0507 40.0144C12.0507 40.1652 12.0016 40.2943 11.9039 40.4017C11.8062 40.5096 11.6809 40.5631 11.5295 40.5631H3.51755C3.36542 40.5631 3.23513 40.5096 3.12667 40.4017C3.01785 40.2943 2.9638 40.1652 2.9638 40.0144ZM11.5621 37.8197C11.323 37.7551 11.1601 37.648 11.0735 37.4969C10.9865 37.3469 10.9646 37.1958 11.0083 37.0454V37.0131C11.1168 36.7545 11.3015 36.6258 11.5617 36.6258C11.605 36.6258 11.6376 36.6315 11.6594 36.6418C11.6809 36.6528 11.7135 36.6581 11.7571 36.6581C11.9307 36.7013 12.0503 36.7985 12.1154 36.9486C12.1806 37.0993 12.1806 37.25 12.1154 37.4001V37.4323C12.0507 37.6905 11.866 37.8197 11.5621 37.8197Z" fill="#FBF8EF"/>
<path d="M16.8706 28.6543C16.7185 28.6543 16.5882 28.6011 16.4798 28.4929C16.3706 28.3854 16.3169 28.2567 16.3169 28.1056V18.6824C16.3169 18.5324 16.3706 18.4029 16.4798 18.2951C16.5882 18.1876 16.7185 18.1337 16.8706 18.1337C17.022 18.1337 17.1473 18.1876 17.2451 18.2951C17.3428 18.4029 17.3915 18.532 17.3915 18.6824V27.5895H25.7621C25.9135 27.5895 26.0441 27.6378 26.1529 27.7346C26.2614 27.8311 26.3158 27.9556 26.3158 28.1056C26.3158 28.2567 26.2614 28.3854 26.1529 28.4929C26.0441 28.6011 25.9138 28.6543 25.7621 28.6543H16.8706ZM16.8706 40.8532C16.7185 40.8532 16.5882 40.7997 16.4798 40.6919C16.3706 40.5844 16.3169 40.4557 16.3169 40.3046V30.9455C16.3169 30.7955 16.3706 30.6664 16.4798 30.5582C16.5882 30.4508 16.7185 30.3972 16.8706 30.3972H25.7621C25.9135 30.3972 26.0441 30.4508 26.1529 30.5582C26.2614 30.6664 26.3158 30.7955 26.3158 30.9455C26.3158 31.0966 26.2614 31.2197 26.1529 31.3169C26.0441 31.4134 25.9138 31.462 25.7621 31.462H17.3918V39.7885H28.6933C29.0401 39.7885 29.2145 39.9609 29.2145 40.3046C29.2145 40.4557 29.1658 40.5844 29.0681 40.6919C28.9703 40.7997 28.8451 40.8532 28.6936 40.8532H16.8706ZM19.5413 19.2956C19.3892 19.2956 19.2646 19.2424 19.1669 19.1343C19.0692 19.0268 19.0201 18.898 19.0201 18.7473C19.0201 18.4033 19.1937 18.2309 19.5413 18.2309H28.6933C28.8447 18.2309 28.9753 18.2795 29.0842 18.3763C29.1926 18.4731 29.247 18.5973 29.247 18.7473C29.247 18.898 29.1926 19.0271 29.0842 19.1343C28.9753 19.2424 28.8451 19.2956 28.6933 19.2956H19.5413ZM28.6281 21.0385C28.7799 21.0385 28.9102 21.0921 29.019 21.1999C29.1275 21.3077 29.1819 21.4369 29.1819 21.5872C29.1819 21.738 29.1275 21.8614 29.019 21.9582C28.9102 22.0551 28.7799 22.1033 28.6281 22.1033H20.1928V25.7179C20.1928 25.8686 20.1383 25.9977 20.0299 26.1052C19.9211 26.213 19.7908 26.2666 19.639 26.2666C19.4869 26.2666 19.3623 26.213 19.2646 26.1052C19.1669 25.9977 19.1178 25.8686 19.1178 25.7179V21.5872C19.1178 21.4369 19.1669 21.3077 19.2646 21.1999C19.3623 21.0921 19.4869 21.0385 19.639 21.0385H28.6281ZM19.639 32.6884C19.7908 32.6884 19.9211 32.737 20.0299 32.8335C20.1383 32.9304 20.1928 33.0648 20.1928 33.2372V37.045H26.7067C26.8581 37.045 26.9887 37.0989 27.0976 37.2064C27.206 37.3142 27.2604 37.4433 27.2604 37.5937C27.2604 37.7445 27.206 37.8679 27.0976 37.9647C26.9887 38.0615 26.8584 38.1101 26.7067 38.1101H19.639C19.2914 38.1101 19.1178 37.9381 19.1178 37.5937V33.2372C19.1178 32.8715 19.2914 32.6884 19.639 32.6884ZM28.7259 37.0131C28.8776 37.0564 28.9864 37.1479 29.0516 37.2873C29.1167 37.4277 29.1275 37.5728 29.0842 37.7232V37.7554C28.9753 38.0137 28.791 38.1428 28.5304 38.1428C28.2913 38.0782 28.1284 37.9761 28.0418 37.8363C27.9548 37.6962 27.933 37.5409 27.9767 37.3685C28.0851 37.1099 28.2698 36.9812 28.5304 36.9812C28.617 36.9808 28.6822 36.9918 28.7259 37.0131Z" fill="#FBF8EF"/>
<path d="M40.5485 18.8115V29.0093H42.9911C43.1429 29.0093 43.2678 29.0632 43.3655 29.1707C43.4632 29.2789 43.5123 29.4076 43.5123 29.558V37.7874C43.5123 38.1534 43.3383 38.3361 42.9911 38.3361C42.839 38.3361 42.7087 38.2875 42.6002 38.191C42.4914 38.0942 42.4373 37.9601 42.4373 37.7874V30.0744H40.0273C39.8752 30.0744 39.7449 30.0259 39.6364 29.9294C39.5276 29.8326 39.4735 29.7088 39.4735 29.558V19.3279H33.5459C33.1765 19.3279 32.9922 19.1559 32.9922 18.8115C32.9922 18.4458 33.1765 18.2628 33.5459 18.2628H40.0273C40.3745 18.2632 40.5485 18.4462 40.5485 18.8115ZM37.5195 21.1028C37.6713 21.1028 37.7962 21.1567 37.8939 21.2641C37.9916 21.372 38.0407 21.5011 38.0407 21.6514C38.0407 21.9958 37.8667 22.1679 37.5195 22.1679H33.5459C33.1765 22.1679 32.9922 21.9958 32.9922 21.6514C32.9922 21.5011 33.0412 21.372 33.1389 21.2641C33.2367 21.1567 33.372 21.1028 33.5459 21.1028H37.5195ZM40.581 40.2723C40.581 40.617 40.4071 40.7887 40.0599 40.7887C39.9077 40.7887 39.7774 40.7401 39.669 40.6436C39.5602 40.5468 39.5061 40.4234 39.5061 40.2723V32.4948C39.5061 32.3228 39.5602 32.1884 39.669 32.0912C39.7774 31.9947 39.9077 31.9461 40.0599 31.9461C40.4071 31.9461 40.581 32.1291 40.581 32.4948V40.2723ZM42.9911 18.2632H47.2253C47.5725 18.2632 47.7464 18.4462 47.7464 18.8119C47.7464 19.1563 47.5725 19.3283 47.2253 19.3283H42.9911C42.839 19.3283 42.7087 19.2797 42.6002 19.1829C42.4914 19.0864 42.4373 18.9626 42.4373 18.8119C42.4373 18.6398 42.4914 18.5051 42.6002 18.4082C42.7087 18.3114 42.839 18.2632 42.9911 18.2632ZM42.4373 26.6862V21.6518C42.4373 21.5014 42.4914 21.3723 42.6002 21.2645C42.7087 21.157 42.839 21.1031 42.9911 21.1031H49.0164C49.19 21.1031 49.3257 21.157 49.4234 21.2645C49.5211 21.3723 49.5702 21.5014 49.5702 21.6518C49.5702 21.9962 49.3855 22.1682 49.0164 22.1682H43.5123V26.6862C43.5123 27.0306 43.3383 27.2026 42.9911 27.2026C42.839 27.2026 42.7087 27.154 42.6002 27.0572C42.4914 26.9603 42.4373 26.8366 42.4373 26.6862ZM49.2119 18.2305C49.3855 18.2742 49.505 18.371 49.5702 18.521C49.6353 18.6718 49.6461 18.8229 49.6027 18.9729H49.5702C49.505 19.2527 49.3203 19.3925 49.0164 19.3925C48.7773 19.3066 48.6144 19.1935 48.5278 19.0538C48.4408 18.9137 48.419 18.7686 48.4627 18.6178L48.4952 18.5856C48.5604 18.3274 48.7447 18.1983 49.049 18.1983C49.1353 18.1983 49.19 18.2096 49.2119 18.2305Z" fill="#FBF8EF"/>
<path d="M57.1582 18.6827C56.409 21.3936 55.0087 24.8464 54.0967 26.3311L52.2729 26.557C52.9892 24.6531 53.8361 21.2968 54.1944 18.9732L57.1582 18.6827Z" fill="#FBF8EF"/>
<path d="M67.5795 40.8532C66.4724 40.7887 65.4351 40.5521 64.4693 40.1435C63.5029 39.7349 62.6724 39.1646 61.978 38.4329C61.3047 37.7232 60.8 36.9273 60.4635 36.0452C60.1267 35.1631 59.98 34.2377 60.0236 33.2698C60.0669 32.9257 60.2624 32.7534 60.6099 32.7534C60.7614 32.7753 60.8866 32.8342 60.9844 32.9311C61.0821 33.0275 61.1197 33.1623 61.0982 33.3343C61.033 35.0123 61.5868 36.4648 62.7591 37.6909C63.3669 38.3155 64.0831 38.8099 64.9085 39.1756C65.7336 39.5416 66.6346 39.7459 67.6117 39.7888C67.785 39.7888 67.921 39.8424 68.0187 39.9502C68.1165 40.058 68.154 40.1871 68.1326 40.3375C68.1326 40.4883 68.0782 40.6117 67.9697 40.7085C67.8609 40.8054 67.7417 40.8536 67.6117 40.8536H67.5795V40.8532ZM61.8799 28.5901C60.6855 27.5147 60.1425 26.2339 60.2516 24.7496C60.2516 24.707 60.2566 24.5996 60.2677 24.4272C60.2785 24.2552 60.3218 24.0455 60.398 23.798C60.4739 23.5511 60.5877 23.2872 60.7402 23.0074C60.892 22.7283 61.1093 22.4587 61.3917 22.2008C62.0861 21.5128 62.9062 21.0928 63.8508 20.9421C64.7954 20.7917 65.7343 20.7161 66.6682 20.7161C66.9721 20.7381 67.45 20.797 68.1011 20.8935C68.7525 20.9903 69.404 21.2219 70.0551 21.5876C71.6838 22.4697 72.4652 23.8466 72.4 25.7182C72.356 26.0406 72.172 26.202 71.8463 26.202C71.6723 26.202 71.537 26.1488 71.4393 26.0406C71.3416 25.9332 71.3036 25.8044 71.3255 25.6533C71.3688 24.8578 71.2059 24.2013 70.8369 23.6848C70.6414 23.3408 70.3808 23.0556 70.0551 22.8297C69.7294 22.6038 69.3711 22.4154 68.9805 22.2647C68.5897 22.1143 68.1934 22.0015 67.7918 21.926C67.3898 21.8508 67.0047 21.8022 66.6356 21.7809C65.8539 21.7809 65.056 21.8345 64.2417 21.9419C63.4273 22.0501 62.7272 22.3831 62.1409 22.9425C61.7282 23.3298 61.4894 23.7171 61.4243 24.1041C61.3591 24.491 61.3266 24.7067 61.3266 24.7492C61.3047 25.3738 61.3917 25.9271 61.5871 26.4116C61.7826 26.8954 62.0865 27.3313 62.4992 27.7186C62.9112 28.1059 63.4055 28.4663 63.9811 28.8001C64.556 29.1335 65.2024 29.4509 65.919 29.752L66.4076 29.978C67.2545 30.344 68.0305 30.6937 68.7361 31.0268C69.4416 31.3605 70.044 31.7102 70.5437 32.0759C71.1082 32.4416 71.5094 32.8505 71.7485 33.302C72.0524 33.8185 72.128 34.3565 71.9766 34.9159C71.9114 35.1741 71.7375 35.3032 71.4554 35.3032C71.2381 35.2603 71.086 35.1794 70.9994 35.0609C70.9124 34.9428 70.8906 34.8084 70.9342 34.6573C71.1078 34.0121 70.7495 33.4205 69.8593 32.8825C68.9687 32.3448 67.6773 31.6992 65.9834 30.9459L65.4948 30.7522C64.8867 30.4731 64.2571 30.1667 63.606 29.8325C62.9549 29.4991 62.3793 29.0852 61.8799 28.5901ZM63.9968 33.6245C63.888 33.8827 63.7037 34.0118 63.4435 34.0118C63.1829 33.9472 63.0089 33.8398 62.9223 33.689C62.8353 33.5386 62.8246 33.3879 62.8897 33.2375V33.2052C62.9549 32.9467 63.1388 32.8176 63.4435 32.8176C63.4868 32.8176 63.519 32.8232 63.5412 32.8339C63.5626 32.8449 63.5949 32.8502 63.6389 32.8502C63.7903 32.8935 63.8995 32.9903 63.9646 33.1403C64.0298 33.2911 64.0405 33.4421 63.9972 33.5922V33.6245H63.9968ZM74.159 36.6258C73.3983 37.422 72.5468 37.9168 71.6021 38.1105C70.6575 38.3041 69.6642 38.4006 68.6219 38.4006C68.1007 38.3793 67.5634 38.3041 67.0097 38.1747C66.4559 38.0452 65.9351 37.8629 65.4465 37.626C64.9579 37.3894 64.5184 37.0883 64.1275 36.7223C63.7366 36.3569 63.4324 35.9157 63.2154 35.3993C63.1718 35.2705 63.1775 35.1361 63.2315 34.996C63.2856 34.8559 63.3783 34.7538 63.5082 34.6892C63.5516 34.6892 63.5841 34.6842 63.606 34.6733C63.6274 34.6626 63.66 34.6569 63.7037 34.6569C63.9424 34.6569 64.116 34.7651 64.2249 34.9797C64.3985 35.4103 64.6483 35.7653 64.974 36.0448C65.2998 36.3247 65.6685 36.5559 66.0812 36.7386C66.4935 36.9216 66.9223 37.0564 67.3676 37.1422C67.8126 37.228 68.2414 37.2929 68.6541 37.3359C69.1964 37.3359 69.7612 37.3032 70.3475 37.239C70.9339 37.1745 71.4876 37.0347 72.0084 36.8194C72.5292 36.6049 72.9856 36.3087 73.3765 35.932C73.7674 35.5557 74.0387 35.0552 74.1901 34.4314C74.2119 33.8937 74.1901 33.4634 74.125 33.1403C74.0598 32.8172 73.8969 32.5061 73.6364 32.2043C73.3106 31.839 72.7898 31.446 72.0732 31.0264C71.3566 30.6068 70.3683 30.1177 69.1094 29.558C68.1759 29.1498 67.3451 28.7625 66.6181 28.3964C65.8904 28.0308 65.2772 27.6651 64.7779 27.2991C63.4964 26.3524 62.9538 25.3522 63.1492 24.2977C63.1925 24.1041 63.2741 23.986 63.3937 23.9427C63.5129 23.8998 63.6486 23.8781 63.8007 23.8781C63.9525 23.8998 64.0663 23.97 64.1429 24.0877C64.2188 24.2066 64.2456 24.341 64.2245 24.4914C64.1593 24.8574 64.2571 25.2174 64.5177 25.5725C64.7782 25.9275 65.158 26.2722 65.6577 26.6053C66.1571 26.939 66.7487 27.2724 67.4328 27.6055C68.1168 27.9392 68.8273 28.267 69.5658 28.5897C70.9339 29.214 71.9923 29.7513 72.7411 30.2035C73.4907 30.6551 74.0491 31.0966 74.4185 31.5265C74.8527 32 75.1079 32.4735 75.1841 32.9463C75.2604 33.4198 75.2765 33.9362 75.2332 34.4952C75.2332 34.5388 75.168 34.7807 75.0381 35.2216C74.9074 35.6632 74.6146 36.131 74.159 36.6258ZM73.5071 20.7158C74.7879 22.1143 75.3746 23.8249 75.2661 25.847C75.2221 26.1917 75.0381 26.3634 74.7124 26.3634C74.3215 26.3205 74.1475 26.1268 74.1908 25.7824C74.2341 24.9432 74.1257 24.1477 73.8651 23.3944C73.6049 22.6417 73.2143 21.9855 72.6928 21.4259C72.128 20.802 71.4174 20.3122 70.5598 19.9571C69.7018 19.6021 68.7411 19.3925 67.6773 19.3283C67.5251 19.3283 67.3948 19.2747 67.2864 19.1669C67.1776 19.0594 67.1342 18.9303 67.1561 18.7796C67.1561 18.6292 67.2098 18.505 67.3189 18.4082C67.4274 18.3114 67.5577 18.2632 67.7098 18.2632C70.1854 18.3919 72.1172 19.2098 73.5071 20.7158Z" fill="#FBF8EF"/>
</svg>
