<svg width="9" height="33" viewBox="0 0 9 33" fill="none" xmlns="http://www.w3.org/2000/svg">
<path d="M8.49 7.98947V0.694737C8.49 0.310895 8.18572 0 7.8108 0H0.6792C0.304282 0 0 0.310895 0 0.694737V7.98947C0 8.37332 0.304282 8.68421 0.6792 8.68421H7.8108C8.18572 8.68421 8.49 8.37332 8.49 7.98947Z" fill="#F4F1E9"/>
<path d="M8.49 20.1474V12.8527C8.49 12.4689 8.18572 12.158 7.8108 12.158H0.6792C0.304282 12.158 0 12.4689 0 12.8527V20.1474C0 20.5313 0.304282 20.8422 0.6792 20.8422H7.8108C8.18572 20.8422 8.49 20.5313 8.49 20.1474Z" fill="#F4F1E9"/>
<path d="M8.49 32.3053V25.0105C8.49 24.6267 8.18572 24.3158 7.8108 24.3158H0.6792C0.304282 24.3158 0 24.6267 0 25.0105V32.3053C0 32.6891 0.304282 33 0.6792 33H7.8108C8.18572 33 8.49 32.6891 8.49 32.3053Z" fill="#F4F1E9"/>
</svg>
