<svg width="33" height="33" viewBox="0 0 33 33" fill="none" xmlns="http://www.w3.org/2000/svg">
<path d="M32.5959 30.6563L24.6624 22.7229C26.629 20.3253 27.8143 17.2543 27.8143 13.9071C27.8143 6.22959 21.5847 0 13.9071 0C6.22286 0 0 6.22959 0 13.9071C0 21.5847 6.22286 27.8143 13.9071 27.8143C17.2543 27.8143 20.3186 26.6357 22.7161 24.6692L30.6496 32.5959C31.1884 33.1347 32.0571 33.1347 32.5959 32.5959C33.1347 32.0639 33.1347 31.1884 32.5959 30.6563ZM13.9071 25.0463C7.75837 25.0463 2.76122 20.0492 2.76122 13.9071C2.76122 7.7651 7.75837 2.76122 13.9071 2.76122C20.0492 2.76122 25.0531 7.7651 25.0531 13.9071C25.0531 20.0492 20.0492 25.0463 13.9071 25.0463Z" fill="#000000"/>
</svg>
