<svg width="47" height="47" viewBox="0 0 47 47" fill="none" xmlns="http://www.w3.org/2000/svg">
<path d="M33.3722 15.9755C32.5797 16.4441 31.7038 16.7855 30.7706 16.97C30.023 16.1746 28.957 15.6762 27.7813 15.6762C25.5189 15.6762 23.6856 17.5095 23.6856 19.772C23.6856 20.0927 23.721 20.406 23.7908 20.7042C20.3875 20.5348 17.3696 18.904 15.3484 16.4255C14.9952 17.0308 14.7938 17.7351 14.7938 18.4855C14.7938 19.9054 15.5166 21.1598 16.6169 21.8945C15.9447 21.8737 15.3141 21.6886 14.7617 21.3815C14.7606 21.3983 14.7606 21.4169 14.7606 21.4343C14.7606 23.4178 16.1714 25.0745 18.0474 25.4497C17.702 25.5442 17.3414 25.5949 16.9674 25.5949C16.7041 25.5949 16.4476 25.5684 16.1978 25.5212C16.7193 27.1475 18.2302 28.3322 20.023 28.3648C18.6217 29.464 16.856 30.1188 14.9355 30.1188C14.6053 30.1188 14.2796 30.1002 13.959 30.0609C15.7714 31.2225 17.9253 31.9015 20.2384 31.9015C27.7729 31.9015 31.8922 25.6596 31.8922 20.2474C31.8922 20.0702 31.8877 19.893 31.8804 19.7169C32.6803 19.1398 33.3745 18.4186 33.9235 17.5973C33.1889 17.9224 32.3996 18.1418 31.571 18.2408C32.4165 17.7351 33.0662 16.9307 33.3722 15.9755Z" fill="#FBF8EF"/>
<path d="M23.5 0C10.5423 0 0 10.5414 0 23.4994C0 36.4575 10.5423 47 23.5 47C36.4577 47 47 36.4575 47 23.4994C47 10.5414 36.4577 0 23.5 0ZM23.5 43.771C12.3226 43.771 3.22889 34.6771 3.22889 23.4994C3.22889 12.3218 12.3226 3.2284 23.5 3.2284C34.6773 3.2284 43.7711 12.3218 43.7711 23.4994C43.7711 34.6771 34.6773 43.771 23.5 43.771Z" fill="#FBF8EF"/>
</svg>
