<svg width="61" height="61" viewBox="0 0 61 61" fill="none" xmlns="http://www.w3.org/2000/svg">
<path d="M43.3126 20.7342C42.284 21.3424 41.1472 21.7855 39.936 22.025C38.9657 20.9926 37.5822 20.3458 36.0563 20.3458C33.1199 20.3458 30.7406 22.7252 30.7406 25.6616C30.7406 26.0778 30.7866 26.4845 30.8771 26.8714C26.4601 26.6517 22.5432 24.5351 19.92 21.3183C19.4615 22.1038 19.2001 23.0179 19.2001 23.9919C19.2001 25.8347 20.1383 27.4628 21.5663 28.4163C20.6939 28.3893 19.8755 28.1491 19.1585 27.7505C19.1571 27.7724 19.1571 27.7965 19.1571 27.8191C19.1571 30.3934 20.9881 32.5436 23.423 33.0306C22.9747 33.1532 22.5067 33.2189 22.0212 33.2189C21.6795 33.2189 21.3466 33.1846 21.0224 33.1233C21.6992 35.234 23.6602 36.7716 25.987 36.8139C24.1684 38.2406 21.8766 39.0904 19.3841 39.0904C18.9556 39.0904 18.5328 39.0663 18.1167 39.0152C20.469 40.5229 23.2645 41.4041 26.2666 41.4041C36.0454 41.4041 41.3918 33.3029 41.3918 26.2786C41.3918 26.0486 41.3859 25.8186 41.3765 25.5901C42.4146 24.841 43.3156 23.905 44.0281 22.8391C43.0746 23.2611 42.0503 23.5458 40.9749 23.6743C42.0722 23.0179 42.9155 21.9739 43.3126 20.7342Z" fill="#FBF8EF"/>
<path d="M30.5 0C13.6825 0 0 13.6814 0 30.4993C0 47.3172 13.6825 61 30.5 61C47.3175 61 61 47.3172 61 30.4993C61 13.6814 47.3175 0 30.5 0ZM30.5 56.8092C15.9932 56.8092 4.19068 45.0064 4.19068 30.4993C4.19068 15.9921 15.9932 4.19005 30.5 4.19005C45.0068 4.19005 56.8093 15.9921 56.8093 30.4993C56.8093 45.0064 45.0068 56.8092 30.5 56.8092Z" fill="#FBF8EF"/>
</svg>
