<svg width="61" height="61" viewBox="0 0 61 61" fill="none" xmlns="http://www.w3.org/2000/svg">
<path d="M12.6483 21.1608C14.3212 21.1608 17.8915 21.1608 19.0975 21.1608C19.3479 21.1608 19.5715 21.3119 19.6759 21.5447C21.1563 24.8473 22.9619 27.836 25.137 30.4684C25.3246 30.7771 25.776 30.7431 25.9114 30.4069C26.5913 28.713 27.844 24.5913 25.4184 21.6654C25.2019 21.4052 25.2894 20.9952 25.5976 20.8644C28.0527 19.8146 30.4599 19.6613 32.7973 20.7357C33.2882 20.962 33.6098 21.4616 33.6098 22.0139L34.1571 30.4995C34.1571 30.8762 34.4935 31.1776 34.8525 31.0996C37.5482 30.5125 39.1365 26.3727 40.7072 22.0501C40.9005 21.5179 41.3914 21.1608 41.9457 21.1608H47.8844C48.3696 21.1608 48.7618 21.6047 48.6729 22.0942C48.115 25.1625 45.1048 29.1396 43.5312 31.0518C42.9868 31.7134 42.9818 32.6785 43.5249 33.3415L48.8351 39.823C49.2167 40.2893 48.8936 40.9993 48.3005 40.9993H41.5797C41.0281 40.9993 40.502 40.7629 40.1275 40.3471L35.428 36.3368C35.1826 36.0642 34.722 35.9666 34.4928 36.2529C33.9102 36.9781 33.9554 37.8731 33.6803 39.9068C33.5943 40.5423 33.0371 41 32.4108 41H27.8143C27.1605 41 26.5152 40.8597 25.9248 40.5727C23.2877 39.2909 16.0838 34.7491 12.0318 22.0327C11.8964 21.6047 12.2103 21.1608 12.6483 21.1608Z" fill="#FBF8EF"/>
<path d="M30.4993 61C13.6828 61 0 47.3172 0 30.4993C0 13.6814 13.6828 0 30.4993 0C47.3172 0 61 13.6814 61 30.4993C61 47.3172 47.3172 61 30.4993 61ZM30.4993 4.19005C15.9921 4.19005 4.19005 15.9921 4.19005 30.4993C4.19005 45.0064 15.9921 56.8092 30.4993 56.8092C45.0079 56.8092 56.8092 45.0064 56.8092 30.4993C56.8092 15.9921 45.0079 4.19005 30.4993 4.19005Z" fill="#FBF8EF"/>
</svg>
