<svg width="47" height="47" viewBox="0 0 47 47" fill="none" xmlns="http://www.w3.org/2000/svg">
<path d="M9.74558 16.3042C11.0346 16.3042 13.7854 16.3042 14.7147 16.3042C14.9076 16.3042 15.0799 16.4207 15.1603 16.6C16.301 19.1446 17.6921 21.4475 19.3681 23.4757C19.5126 23.7135 19.8604 23.6873 19.9647 23.4283C20.4886 22.1232 21.4537 18.9474 19.5849 16.6931C19.4181 16.4925 19.4854 16.1767 19.7229 16.0759C21.6146 15.267 23.4693 15.1489 25.2702 15.9767C25.6485 16.151 25.8963 16.536 25.8963 16.9616L26.318 23.4996C26.318 23.7898 26.5772 24.0221 26.8538 23.962C28.9308 23.5097 30.1546 20.32 31.3648 16.9894C31.5137 16.5794 31.8919 16.3042 32.319 16.3042H36.8947C37.2686 16.3042 37.5707 16.6463 37.5023 17.0234C37.0724 19.3875 34.753 22.4518 33.5407 23.9252C33.1211 24.4349 33.1173 25.1786 33.5358 25.6894L37.6272 30.6833C37.9212 31.0426 37.6723 31.5896 37.2153 31.5896H32.037C31.612 31.5896 31.2066 31.4075 30.9181 31.0872L27.2972 27.9972C27.1081 27.7872 26.7532 27.712 26.5766 27.9326C26.1278 28.4913 26.1625 29.1809 25.9506 30.7479C25.8843 31.2376 25.455 31.5902 24.9724 31.5902H21.4309C20.9272 31.5902 20.4299 31.4821 19.9751 31.261C17.9432 30.2733 12.3926 26.7739 9.27062 16.976C9.16628 16.6463 9.40812 16.3042 9.74558 16.3042Z" fill="#FBF8EF"/>
<path d="M23.4994 47C10.5425 47 0 36.4575 0 23.4994C0 10.5414 10.5425 0 23.4994 0C36.4575 0 47 10.5414 47 23.4994C47 36.4575 36.4575 47 23.4994 47ZM23.4994 3.2284C12.3218 3.2284 3.2284 12.3218 3.2284 23.4994C3.2284 34.6771 12.3218 43.771 23.4994 43.771C34.6782 43.771 43.771 34.6771 43.771 23.4994C43.771 12.3218 34.6782 3.2284 23.4994 3.2284Z" fill="#FBF8EF"/>
</svg>
